<?xml version="1.0" encoding="UTF-8" standalone="no"?>
<svg
   xmlns:dc="http://purl.org/dc/elements/1.1/"
   xmlns:cc="http://creativecommons.org/ns#"
   xmlns:rdf="http://www.w3.org/1999/02/22-rdf-syntax-ns#"
   xmlns:svg="http://www.w3.org/2000/svg"
   xmlns="http://www.w3.org/2000/svg"
   xmlns:sodipodi="http://sodipodi.sourceforge.net/DTD/sodipodi-0.dtd"
   xmlns:inkscape="http://www.inkscape.org/namespaces/inkscape"
   viewBox="0 0 159.03 70.38"
   version="1.1"
   id="svg961"
   sodipodi:docname="CVRE_middle.svg"
   inkscape:version="0.92.3 (2405546, 2018-03-11)">
  <metadata
     id="metadata965">
    <rdf:RDF>
      <cc:Work
         rdf:about="">
        <dc:format>image/svg+xml</dc:format>
        <dc:type
           rdf:resource="http://purl.org/dc/dcmitype/StillImage" />
      </cc:Work>
    </rdf:RDF>
  </metadata>
  <sodipodi:namedview
     pagecolor="#ffffff"
     bordercolor="#666666"
     borderopacity="1"
     objecttolerance="10"
     gridtolerance="10"
     guidetolerance="10"
     inkscape:pageopacity="0"
     inkscape:pageshadow="2"
     inkscape:window-width="3840"
     inkscape:window-height="2035"
     id="namedview963"
     showgrid="false"
     inkscape:zoom="9.6899957"
     inkscape:cx="111.38675"
     inkscape:cy="37.385377"
     inkscape:window-x="-13"
     inkscape:window-y="-13"
     inkscape:window-maximized="1"
     inkscape:current-layer="g954" />
  <defs
     id="defs896">
    <style
       id="style891">.cls-1,.cls-4,.cls-7{fill:none;}.cls-2{clip-path:url(#clip-path);}.cls-3{fill:#231f20;}.cls-4{stroke:#703792;stroke-width:4px;}.cls-4,.cls-7{stroke-miterlimit:10;}.cls-5{fill:#c5b034;}.cls-6{fill:#b7a0ca;}.cls-7{stroke:#fff;stroke-width:0.75px;}.cls-8{fill:#fff;}</style>
    <clipPath
       id="clip-path"
       transform="translate(0 0)">
      <rect
         class="cls-1"
         width="159.03"
         height="70.38"
         id="rect893" />
    </clipPath>
  </defs>
  <title
     id="title898">CVRE_middle</title>
  <g
     id="Layer_2"
     data-name="Layer 2">
    <g
       id="Layer_1-2"
       data-name="Layer 1">
      <g
         id="CVRE_middle">
        <g
           class="cls-2"
           clip-path="url(#clip-path)"
           id="g956">
          <g
             class="cls-2"
             clip-path="url(#clip-path)"
             id="g954">
            <path
               class="cls-3"
               d="M145,2H14A12,12,0,0,0,2,14V56.38a12,12,0,0,0,12,12H46.9c.29,0,.57,0,.85,0A11.23,11.23,0,0,0,58.3,62.78L62.2,56H97.27l3.9,6.75a11.23,11.23,0,0,0,10.38,5.57c.2,0,.39,0,.59,0H145a12,12,0,0,0,12-12V14A12,12,0,0,0,145,2"
               id="path900"
               style="fill:#141213;fill-opacity:1"
               transform="translate(0 0)" />
            <path
               class="cls-4"
               d="M145,2H14A12,12,0,0,0,2,14V56.38a12,12,0,0,0,12,12H46.9c.29,0,.57,0,.85,0A11.23,11.23,0,0,0,58.3,62.78L62.2,56H97.27l3.9,6.75a11.23,11.23,0,0,0,10.38,5.57c.2,0,.39,0,.59,0H145a12,12,0,0,0,12-12V14A12,12,0,0,0,145,2Z"
               id="path902"
               transform="translate(0 0)"
               style="stroke:#783cb4;stroke-opacity:1" />
            <rect
               class="cls-5"
               x="52.62"
               y="46.25"
               width="55.4"
               height="1.75"
               id="rect904" />
            <path
               class="cls-6"
               d="M65.63,37.72,65,35.25H59.68L62.31,43h6.6l2.63-7.75H66.1a24.42,24.42,0,0,0-.47,2.48"
               id="path906"
               transform="translate(0 0)" />
            <path
               class="cls-7"
               d="M65.63,37.72,65,35.25H59.68L62.31,43h6.6l2.63-7.75H66.1A24.42,24.42,0,0,0,65.63,37.72Z"
               id="path908"
               transform="translate(0 0)" />
            <polygon
               class="cls-8"
               points="64.1 31.43 58.73 14.44 52.62 14.44 59.68 35.25 65.03 35.25 64.1 31.43"
               id="polygon910" />
            <polygon
               class="cls-7"
               points="64.1 31.43 58.73 14.44 52.62 14.44 59.68 35.25 65.03 35.25 64.1 31.43"
               id="polygon912" />
            <path
               class="cls-8"
               d="M72.5,14.44l-5.41,17q-.62,2.24-1,3.81h5.44l7.07-20.81Z"
               id="path914"
               transform="translate(0 0)" />
            <path
               class="cls-7"
               d="M72.5,14.44l-5.41,17q-.62,2.24-1,3.81h5.44l7.07-20.81Z"
               id="path916"
               transform="translate(0 0)" />
            <path
               class="cls-8"
               d="M103.55,27.48A7.57,7.57,0,0,0,104.93,23q0-4.32-2.79-6.44t-8.61-2.12H82.21V35.25h6.06V19.4H93.1a8.47,8.47,0,0,1,4.33.86,3.12,3.12,0,0,1,1.4,2.89,3.42,3.42,0,0,1-1.37,3c-.91.64-4.6,1-6.51,1L94.48,32l2,3.21h6.29l-3.15-4.69a9.17,9.17,0,0,0,3.93-3.08"
               id="path918"
               transform="translate(0 0)" />
            <path
               class="cls-7"
               d="M103.55,27.48A7.57,7.57,0,0,0,104.93,23q0-4.32-2.79-6.44t-8.61-2.12H82.21V35.25h6.06V19.4H93.1a8.47,8.47,0,0,1,4.33.86,3.12,3.12,0,0,1,1.4,2.89,3.42,3.42,0,0,1-1.37,3c-.91.64-4.6,1-6.51,1L94.48,32l2,3.21h6.29l-3.15-4.69A9.17,9.17,0,0,0,103.55,27.48Z"
               id="path920"
               transform="translate(0 0)" />
            <rect
               class="cls-6"
               x="82.21"
               y="35.25"
               width="6.06"
               height="7.75"
               id="rect922" />
            <rect
               class="cls-7"
               x="82.21"
               y="35.25"
               width="6.06"
               height="7.75"
               id="rect924" />
            <path
               class="cls-6"
               d="M101.3,43H108c-.95-1.37-2.71-4-5.25-7.75H96.48Z"
               id="path926"
               transform="translate(0 0)" />
            <path
               class="cls-7"
               d="M101.3,43H108c-.95-1.37-2.71-4-5.25-7.75H96.48Z"
               id="path928"
               transform="translate(0 0)" />
            <path
               class="cls-6"
               d="M17.65,53.27a4,4,0,0,0,4,4H43.58a4,4,0,0,0,3.67-2.41l2.21-5.09H26V35.25H17.65Z"
               id="path930"
               transform="translate(0 0)" />
            <path
               class="cls-7"
               d="M17.65,53.27a4,4,0,0,0,4,4H43.58a4,4,0,0,0,3.67-2.41l2.21-5.09H26V35.25H17.65Z"
               id="path932"
               transform="translate(0 0)" />
            <path
               class="cls-8"
               d="M26,21.88H49.46l-2.94-7.44H21.65a4,4,0,0,0-4,4v16.8H26V21.88Z"
               id="path934"
               transform="translate(0 0)" />
            <path
               class="cls-7"
               d="M26,21.88H49.46l-2.94-7.44H21.65a4,4,0,0,0-4,4v16.8H26V21.88Z"
               id="path936"
               transform="translate(0 0)" />
            <path
               class="cls-6"
               d="M121.32,39V35.25H113V53.51a4,4,0,0,0,4,4h21.93a4,4,0,0,0,3.67-2.41L144.77,50H121.32Z"
               id="path938"
               transform="translate(0 0)" />
            <path
               class="cls-7"
               d="M121.32,39V35.25H113V53.51a4,4,0,0,0,4,4h21.93a4,4,0,0,0,3.67-2.41L144.77,50H121.32Z"
               id="path940"
               transform="translate(0 0)" />
            <path
               class="cls-8"
               d="M121.32,31.53v-9.4h23.45l-1.94-4.91a4,4,0,0,0-3.72-2.53H108.69l1.41,1.07a6.89,6.89,0,0,1,2.69,4.76l0,.31a24.5,24.5,0,0,1,.14,2.6V35.25h8.36Z"
               id="path942"
               transform="translate(0 0)" />
            <path
               class="cls-7"
               d="M121.32,31.53v-9.4h23.45l-1.94-4.91a4,4,0,0,0-3.72-2.53H108.69l1.41,1.07a6.89,6.89,0,0,1,2.69,4.76l0,.31a24.5,24.5,0,0,1,.14,2.6V35.25h8.36Z"
               id="path944"
               transform="translate(0 0)" />
            <rect
               class="cls-8"
               x="125.97"
               y="31.53"
               width="14.22"
               height="3.72"
               id="rect946" />
            <rect
               class="cls-7"
               x="125.97"
               y="31.53"
               width="14.22"
               height="3.72"
               id="rect948" />
            <rect
               class="cls-6"
               x="125.97"
               y="35.25"
               width="14.22"
               height="3.72"
               id="rect950" />
            <rect
               class="cls-7"
               x="125.97"
               y="35.25"
               width="14.22"
               height="3.72"
               id="rect952" />
          </g>
        </g>
      </g>
    </g>
  </g>
</svg>
